# xmcd
#
# Track frame offsets:
#	150
#	15157
#	35167
#	53835
#	69359
#	86630
#	104612
#	120778
#	138658
#	154910
#	170838
#
# Disc length: 2539 seconds
#
# Revision: 0
# Processed by: cddbd v1.5.2PL0 Copyright (c) Steve Scherf et al.
# Submitted via: EZCDAudioConverter 1.3.4.1
#
DISCID=8f09e90b
DTITLE=Sabrina Weeks and Swing Cat Bounce - Tales from Lenny's Diner
DYEAR=2010
DGENRE=Blues
TTITLE0=Boogie Downtown
TTITLE1=Fingers In My Pocket
TTITLE2=Something's Got a Hold On Me
TTITLE3=Thinking of You
TTITLE4=Bad Boys
TTITLE5=Detour
TTITLE6=Ain't My Time To Sing the Blues
TTITLE7=All That Love
TTITLE8=Wrath of Mom
TTITLE9=Spend a Little Time
TTITLE10=Independent Woman
EXTD=
EXTT0=
EXTT1=
EXTT2=
EXTT3=
EXTT4=
EXTT5=
EXTT6=
EXTT7=
EXTT8=
EXTT9=
EXTT10=
PLAYORDER=
